<svg width="134" height="22" viewBox="0 0 134 22" fill="none" xmlns="http://www.w3.org/2000/svg">
<path d="M17.0185 12.0324L12.3793 19.9779L7.74004 12.0324H17.0185ZM18.2614 11.3222H6.49219L12.3793 21.3833L18.2614 11.3222Z" fill="white"/>
<path d="M25.0841 2.14988L29.7234 10.0954H20.4449L25.0841 2.14988ZM25.0841 0.729614L19.197 10.7906H30.9712L25.0841 0.729614Z" fill="white"/>
<path d="M0.851562 0.729614L5.78769 9.62861L11.1817 0.95307L0.851562 0.729614Z" fill="#4CAF4F"/>
<path d="M12.3793 1.50909L17.557 10.3584H7.19165L12.3793 1.50909Z" fill="#4CAF4F"/>
<path d="M18.8902 12.2905L24.0728 21.3832H13.4609L18.7291 12.2905H18.8902Z" fill="#4CAF4F"/>
<path d="M20.0122 11.7392L25.0842 20.6928L30.2266 11.7392H20.0122Z" fill="#4CAF4F"/>
<path d="M52.5135 2.16583V19.6901H49.3132L41.6891 8.66042H41.5608V19.6901H37.8557V2.16583H41.1073L48.6715 13.187H48.8255V2.16583H52.5135Z" fill="white"/>
<path d="M61.4959 19.9468C60.144 19.9468 58.9802 19.673 58.0048 19.1253C57.035 18.572 56.2877 17.7905 55.7629 16.7808C55.2381 15.7654 54.9757 14.5646 54.9757 13.1784C54.9757 11.8264 55.2381 10.6399 55.7629 9.61878C56.2877 8.59767 57.0264 7.80189 57.9791 7.23144C58.9375 6.66099 60.0612 6.37576 61.3505 6.37576C62.2175 6.37576 63.0247 6.51552 63.772 6.79505C64.525 7.06886 65.181 7.48244 65.7401 8.03578C66.3048 8.58911 66.7441 9.28506 67.0578 10.1236C67.3716 10.9565 67.5284 11.932 67.5284 13.05V14.0512H56.4303V11.7922H64.0972C64.0972 11.2674 63.9831 10.8025 63.7549 10.3974C63.5267 9.99242 63.2101 9.67582 62.8051 9.44764C62.4058 9.21376 61.9409 9.09682 61.4104 9.09682C60.857 9.09682 60.3664 9.22517 59.9386 9.48187C59.5165 9.73287 59.1856 10.0723 58.946 10.5001C58.7064 10.9223 58.5838 11.3929 58.5781 11.912V14.0597C58.5781 14.7101 58.6979 15.272 58.9375 15.7454C59.1827 16.2189 59.5279 16.584 59.9728 16.8407C60.4178 17.0974 60.9454 17.2257 61.5558 17.2257C61.9608 17.2257 62.3316 17.1687 62.6682 17.0546C63.0048 16.9405 63.2928 16.7694 63.5324 16.5412C63.772 16.313 63.9546 16.0335 64.0801 15.7026L67.4514 15.9251C67.2803 16.7352 66.9295 17.4425 66.399 18.0472C65.8741 18.6462 65.1953 19.1139 64.3624 19.4505C63.5353 19.7814 62.5798 19.9468 61.4959 19.9468Z" fill="white"/>
<path d="M72.7181 6.5469L75.1311 11.1419L77.604 6.5469H81.3434L77.5356 13.1185L81.446 19.6901H77.7238L75.1311 15.1465L72.5812 19.6901H68.8162L72.7181 13.1185L68.9532 6.5469H72.7181Z" fill="white"/>
<path d="M88.976 19.9468C87.6297 19.9468 86.4717 19.6616 85.5019 19.0911C84.5379 18.515 83.7963 17.7163 83.2772 16.6952C82.7638 15.6741 82.5071 14.499 82.5071 13.1698C82.5071 11.8236 82.7666 10.6427 83.2857 9.62734C83.8106 8.60623 84.555 7.81045 85.5191 7.24C86.4831 6.66384 87.6297 6.37576 88.9589 6.37576C90.1055 6.37576 91.1095 6.58398 91.9709 7.00041C92.8322 7.41684 93.5139 8.00155 94.0159 8.75454C94.5179 9.50754 94.7946 10.3917 94.8459 11.4071H91.4061C91.3091 10.7511 91.0524 10.2235 90.636 9.82414C90.2253 9.41912 89.6862 9.21661 89.0188 9.21661C88.454 9.21661 87.9606 9.37063 87.5385 9.67868C87.122 9.98101 86.7969 10.4231 86.563 11.005C86.3291 11.5868 86.2122 12.2913 86.2122 13.1185C86.2122 13.9571 86.3262 14.6701 86.5544 15.2577C86.7883 15.8453 87.1163 16.2931 87.5385 16.6011C87.9606 16.9091 88.454 17.0632 89.0188 17.0632C89.4352 17.0632 89.8089 16.9776 90.1397 16.8065C90.4763 16.6353 90.7529 16.3872 90.9697 16.062C91.1922 15.7312 91.3377 15.3347 91.4061 14.8726H94.8459C94.7889 15.8766 94.5151 16.7608 94.0245 17.5252C93.5396 18.2839 92.8693 18.8772 92.0136 19.305C91.158 19.7329 90.1454 19.9468 88.976 19.9468Z" fill="white"/>
<path d="M103.17 19.9468C101.818 19.9468 100.654 19.673 99.6784 19.1253C98.7086 18.572 97.9613 17.7905 97.4365 16.7808C96.9117 15.7654 96.6493 14.5646 96.6493 13.1784C96.6493 11.8264 96.9117 10.6399 97.4365 9.61878C97.9613 8.59767 98.7 7.80189 99.6527 7.23144C100.611 6.66099 101.735 6.37576 103.024 6.37576C103.891 6.37576 104.698 6.51552 105.446 6.79505C106.199 7.06886 106.855 7.48244 107.414 8.03578C107.978 8.58911 108.418 9.28506 108.731 10.1236C109.045 10.9565 109.202 11.932 109.202 13.05V14.0512H98.1039V11.7922H105.771C105.771 11.2674 105.657 10.8025 105.429 10.3974C105.2 9.99242 104.884 9.67582 104.479 9.44764C104.079 9.21376 103.614 9.09682 103.084 9.09682C102.531 9.09682 102.04 9.22517 101.612 9.48187C101.19 9.73287 100.859 10.0723 100.62 10.5001C100.38 10.9223 100.257 11.3929 100.252 11.912V14.0597C100.252 14.7101 100.371 15.272 100.611 15.7454C100.856 16.2189 101.201 16.584 101.646 16.8407C102.091 17.0974 102.619 17.2257 103.229 17.2257C103.634 17.2257 104.005 17.1687 104.342 17.0546C104.678 16.9405 104.966 16.7694 105.206 16.5412C105.446 16.313 105.628 16.0335 105.754 15.7026L109.125 15.9251C108.954 16.7352 108.603 17.4425 108.073 18.0472C107.548 18.6462 106.869 19.1139 106.036 19.4505C105.209 19.7814 104.253 19.9468 103.17 19.9468Z" fill="white"/>
<path d="M115.226 12.0917V19.6901H111.581V6.5469H115.055V8.86578H115.209C115.5 8.10138 115.988 7.4967 116.672 7.05175C117.357 6.60109 118.187 6.37576 119.162 6.37576C120.075 6.37576 120.871 6.57542 121.549 6.97474C122.228 7.37405 122.756 7.9445 123.132 8.68609C123.509 9.42197 123.697 10.3005 123.697 11.3216V19.6901H120.052V11.9719C120.058 11.1676 119.852 10.5401 119.436 10.0894C119.02 9.63304 118.446 9.40486 117.716 9.40486C117.225 9.40486 116.792 9.51039 116.415 9.72146C116.045 9.93253 115.754 10.2406 115.543 10.6456C115.337 11.0449 115.232 11.5269 115.226 12.0917Z" fill="white"/>
<path d="M133.561 6.5469V9.28507H125.646V6.5469H133.561ZM127.443 3.39801H131.088V15.6513C131.088 15.9879 131.139 16.2503 131.242 16.4385C131.345 16.6211 131.487 16.7494 131.67 16.8236C131.858 16.8977 132.075 16.9348 132.32 16.9348C132.491 16.9348 132.663 16.9206 132.834 16.892C133.005 16.8578 133.136 16.8321 133.227 16.815L133.801 19.5275C133.618 19.5846 133.361 19.6502 133.031 19.7243C132.7 19.8042 132.297 19.8527 131.824 19.8698C130.946 19.904 130.175 19.7871 129.514 19.519C128.858 19.2508 128.347 18.8344 127.982 18.2697C127.617 17.7049 127.437 16.9919 127.443 16.1305V3.39801Z" fill="white"/>
</svg>
