<svg width="35" height="35" viewBox="0 0 35 35" fill="none" xmlns="http://www.w3.org/2000/svg">
<rect x="0.942871" y="0.685425" width="33.4113" height="33.4113" rx="5.56856" fill="#F5F7FA"/>
<g clip-path="url(#clip0_1554_1980)">
<path d="M27.6981 8.8229C27.6981 9.14727 27.9643 9.41021 28.2927 9.41021H28.8872C29.2156 9.41021 29.4818 9.14727 29.4818 8.8229C29.4818 8.49854 29.2156 8.2356 28.8872 8.2356H28.2927C27.9643 8.2356 27.6981 8.49854 27.6981 8.8229Z" fill="#212326"/>
<path d="M10.4558 27.0295H13.3441L12.5032 26.1989C12.2803 25.9786 11.9778 25.8549 11.6624 25.8549H10.4558C5.85869 25.8549 2.13199 22.1736 2.13199 17.6325C2.13199 13.0915 5.85869 9.41022 10.4558 9.41021H19.9688C24.5659 9.41021 28.2926 13.0915 28.2926 17.6325C28.2926 22.1736 24.5659 25.8549 19.9688 25.8549H16.4102C15.9371 25.8549 15.4834 25.6692 15.1489 25.3388L14.1638 24.3657C13.6063 23.815 12.8501 23.5056 12.0617 23.5056H10.4558C7.17214 23.5056 4.51023 20.8762 4.51023 17.6325C4.51023 14.3889 7.17214 11.7594 10.4558 11.7594H19.9688C23.2525 11.7594 25.9144 14.3889 25.9144 17.6325C25.9144 20.8762 23.2525 23.5056 19.9688 23.5056H17.6838C17.2107 23.5056 16.7571 23.32 16.4225 22.9896L15.4374 22.0165C14.8799 21.4658 14.1238 21.1564 13.3353 21.1564H10.4558C8.48564 21.1564 6.88846 19.5787 6.88846 17.6325C6.88846 15.6864 8.48564 14.1087 10.4558 14.1087H19.9688C21.9389 14.1087 23.5361 15.6864 23.5361 17.6325C23.5361 19.555 21.9777 21.1179 20.0407 21.1557L20.0403 21.1564H19.1702C18.6971 21.1564 18.2435 20.9707 17.9089 20.6404L16.9238 19.6673C16.4664 19.2154 15.8752 18.926 15.2422 18.8367L15.2123 18.8072H10.4558C9.79909 18.8072 9.2667 18.2813 9.2667 17.6325C9.2667 16.9838 9.79909 16.4579 10.4558 16.4579H19.9688C20.6255 16.4579 21.1579 16.9838 21.1579 17.6325C21.1579 18.2813 20.6255 18.8072 19.9688 18.8072H17.5905L18.4314 19.6377C18.6544 19.858 18.9568 19.9818 19.2722 19.9818H19.9688C21.2822 19.9818 22.347 18.93 22.347 17.6325C22.347 16.3351 21.2822 15.2833 19.9688 15.2833H10.4558C9.14237 15.2833 8.07758 16.3351 8.07758 17.6325C8.07758 18.93 9.14237 19.9818 10.4558 19.9818H14.8217C15.2948 19.9818 15.7485 20.1674 16.083 20.4978L17.0681 21.4709C17.6256 22.0216 18.3818 22.331 19.1702 22.331H20.2661V22.322C22.7545 22.1704 24.7252 20.1288 24.7252 17.6325C24.7252 15.0377 22.5957 12.9341 19.9688 12.9341H10.4558C7.82891 12.9341 5.69935 15.0377 5.69935 17.6325C5.69935 20.2275 7.82891 22.331 10.4558 22.331H13.3353C13.8084 22.331 14.2621 22.5166 14.5966 22.847L15.5817 23.8201C16.1392 24.3708 16.8954 24.6802 17.6838 24.6802H19.9688C23.9092 24.6802 27.1035 21.5249 27.1035 17.6325C27.1035 13.7402 23.9092 10.5848 19.9688 10.5848H10.4558C6.51541 10.5848 3.32111 13.7402 3.32111 17.6325C3.32111 21.5249 6.51541 24.6802 10.4558 24.6802H12.0617C12.5348 24.6802 12.9885 24.8659 13.323 25.1963L14.3081 26.1694C14.8656 26.7201 15.6217 27.0295 16.4102 27.0295H19.9688C25.2226 27.0295 29.4817 22.8223 29.4817 17.6325C29.4817 12.4427 25.2226 8.2356 19.9688 8.2356L10.4558 8.2356C5.20196 8.2356 0.942871 12.4428 0.942871 17.6325C0.942872 22.8223 5.20197 27.0295 10.4558 27.0295Z" fill="#212326"/>
</g>
<defs>
<clipPath id="clip0_1554_1980">
<rect width="28.5388" height="18.7939" fill="white" transform="translate(0.942871 8.2356)"/>
</clipPath>
</defs>
</svg>
