<svg width="34" height="35" viewBox="0 0 34 35" fill="none" xmlns="http://www.w3.org/2000/svg">
<rect x="0.0922852" y="0.685425" width="33.4113" height="33.4113" rx="5.56856" fill="#F5F7FA"/>
<g clip-path="url(#clip0_1554_1957)">
<path fill-rule="evenodd" clip-rule="evenodd" d="M7.12121 10.4035L0.17041 17.2844C1.5607 18.6607 3.14888 19.8207 4.88046 20.7281C5.35908 21.985 6.1093 23.1636 7.1311 24.1751C10.9754 27.9808 17.2082 27.9808 21.0525 24.1751C22.0743 23.1636 22.8245 21.985 23.3032 20.7281C25.0347 19.8207 26.6229 18.6607 28.0132 17.2844L21.068 10.4091C21.0629 10.4039 21.0577 10.3988 21.0525 10.3937C17.2082 6.58802 10.9754 6.58802 7.1311 10.3937C7.12781 10.3969 7.12451 10.4002 7.12121 10.4035ZM20.3874 21.9696C18.3618 22.6463 16.2355 22.9929 14.0918 22.9929C11.9481 22.9929 9.82183 22.6463 7.79627 21.9696C8.01574 22.2578 8.25804 22.5344 8.52324 22.797C11.5987 25.8415 16.5849 25.8415 19.6604 22.797C19.9256 22.5344 20.1679 22.2578 20.3874 21.9696ZM8.66601 11.634C9.18827 11.9756 9.74359 12.2678 10.3247 12.5061C11.519 12.9959 12.7991 13.2479 14.0918 13.2479C15.3845 13.2479 16.6646 12.9959 17.8589 12.5061C18.44 12.2678 18.9953 11.9755 19.5177 11.634C16.4806 8.77323 11.703 8.77324 8.66601 11.634Z" fill="#3B4158"/>
</g>
<defs>
<clipPath id="clip0_1554_1957">
<rect width="27.8428" height="19.4899" fill="white" transform="translate(0.17041 7.53943)"/>
</clipPath>
</defs>
</svg>
