<svg width="34" height="35" viewBox="0 0 34 35" fill="none" xmlns="http://www.w3.org/2000/svg">
<rect x="0.14209" y="0.685425" width="33.4113" height="33.4113" rx="5.56856" fill="#E8F5E9"/>
<g clip-path="url(#clip0_1554_1954)">
<path fill-rule="evenodd" clip-rule="evenodd" d="M7.34863 0.820801C11.1929 0.820801 14.3093 3.93721 14.3093 7.7815V0.820801H21.27C25.1143 0.820801 28.2307 3.93721 28.2307 7.7815C28.2307 11.6257 25.1143 14.7422 21.27 14.7422C25.1143 14.7422 28.2307 17.8586 28.2307 21.7029C28.2307 23.6117 27.4623 25.3411 26.218 26.5986L26.192 26.6249L26.1689 26.6478C24.9111 27.8939 23.1805 28.6636 21.27 28.6636C19.3726 28.6636 17.6525 27.9044 16.3968 26.6732C16.3806 26.6572 16.3643 26.641 16.348 26.6249C16.3328 26.6096 16.3176 26.5943 16.3025 26.5789C15.0697 25.3231 14.3093 23.6018 14.3093 21.7029C14.3093 25.5471 11.1929 28.6636 7.34863 28.6636C3.50435 28.6636 0.387939 25.5471 0.387939 21.7029V14.7422H7.34863C3.50435 14.7422 0.387939 11.6257 0.387939 7.7815C0.387939 3.93721 3.50435 0.820801 7.34863 0.820801ZM12.9172 7.7815C12.9172 10.8569 10.4241 13.3501 7.34863 13.3501V2.21294C10.4241 2.21294 12.9172 4.70607 12.9172 7.7815ZM26.8386 21.7029C26.8386 18.6274 24.3455 16.1343 21.27 16.1343C18.1946 16.1343 15.7015 18.6274 15.7015 21.7029H26.8386ZM1.78008 16.1343V21.7029C1.78008 24.7783 4.2732 27.2714 7.34863 27.2714C10.4241 27.2714 12.9172 24.7783 12.9172 21.7029V16.1343H1.78008ZM15.7015 13.3501V2.21294H21.27C24.3455 2.21294 26.8386 4.70607 26.8386 7.7815C26.8386 10.8569 24.3455 13.3501 21.27 13.3501H15.7015Z" fill="#5417D7"/>
</g>
<defs>
<clipPath id="clip0_1554_1954">
<rect width="27.8428" height="27.8428" fill="white" transform="translate(0.387939 0.820801)"/>
</clipPath>
</defs>
</svg>
