<svg width="38" height="35" viewBox="0 0 38 35" fill="none" xmlns="http://www.w3.org/2000/svg">
<rect x="0.893066" y="0.685425" width="33.4113" height="33.4113" rx="5.56856" fill="#F5F7FA"/>
<g clip-path="url(#clip0_1554_1984)">
<path d="M9.48474 10.3237C8.07121 10.3237 6.71559 10.8852 5.71609 11.8848L2.4541 15.1467C1.45459 16.1463 0.893066 17.5019 0.893066 18.9154C0.893066 21.8589 3.27926 24.2451 6.22278 24.2451C7.63631 24.2451 8.99193 23.6836 9.99144 22.6841L12.2478 20.4277C12.2478 20.4277 12.2478 20.4278 12.2478 20.4277L18.822 13.8535C19.2993 13.3762 19.9468 13.108 20.6219 13.108C21.7521 13.108 22.7103 13.8446 23.0425 14.864L25.1173 12.7892C24.1708 11.3067 22.5111 10.3237 20.6219 10.3237C19.2083 10.3237 17.8527 10.8852 16.8532 11.8848L8.02267 20.7153C7.54531 21.1927 6.89787 21.4608 6.22278 21.4608C4.81697 21.4608 3.67734 20.3212 3.67734 18.9154C3.67734 18.2403 3.94552 17.5929 4.42288 17.1155L7.68485 13.8535C8.16221 13.3762 8.80965 13.108 9.48474 13.108C10.615 13.108 11.5732 13.8447 11.9054 14.8641L13.9802 12.7892C13.0337 11.3068 11.3741 10.3237 9.48474 10.3237Z" fill="#394149"/>
<path d="M19.1598 20.7153C18.6824 21.1927 18.035 21.4608 17.3599 21.4608C16.2298 21.4608 15.2717 20.7244 14.9394 19.7052L12.8646 21.78C13.8112 23.2622 15.4708 24.2451 17.3599 24.2451C18.7734 24.2451 20.129 23.6836 21.1285 22.6841L29.9591 13.8535C30.4364 13.3762 31.0839 13.108 31.759 13.108C33.1648 13.108 34.3044 14.2476 34.3044 15.6534C34.3044 16.3285 34.0362 16.976 33.5589 17.4533L30.2969 20.7153C29.8195 21.1927 29.1721 21.4608 28.497 21.4608C27.3668 21.4608 26.4087 20.7243 26.0764 19.705L24.0016 21.7798C24.9482 23.2622 26.6078 24.2451 28.497 24.2451C29.9105 24.2451 31.2661 23.6836 32.2657 22.6841L35.5276 19.4221C36.5271 18.4226 37.0887 17.067 37.0887 15.6534C37.0887 12.7099 34.7025 10.3237 31.759 10.3237C30.3454 10.3237 28.9898 10.8852 27.9903 11.8848L19.1598 20.7153Z" fill="#394149"/>
</g>
<defs>
<clipPath id="clip0_1554_1984">
<rect width="36.1956" height="13.9214" fill="white" transform="translate(0.893066 10.3237)"/>
</clipPath>
</defs>
</svg>
