<svg width="34" height="35" viewBox="0 0 34 35" fill="none" xmlns="http://www.w3.org/2000/svg">
<rect x="-0.00732422" y="0.685425" width="33.4113" height="33.4113" rx="5.56856" fill="#F5F7FA"/>
<g clip-path="url(#clip0_1554_1964)">
<path d="M30.6173 10.0207C30.6173 10.0443 30.6173 10.0737 30.6112 10.0914C30.5805 10.3208 30.5805 10.5503 30.5989 10.7857C30.6112 10.8445 30.6234 10.9034 30.6725 10.9505C30.7522 11.0387 30.8748 11.0211 30.9238 10.9151C30.9484 10.8622 30.9484 10.8092 30.9361 10.7563C30.8748 10.5327 30.8625 10.2973 30.8564 10.0678C30.8564 10.0561 30.8564 10.0384 30.8564 10.0207C30.9238 10.0149 30.9852 10.009 31.0403 10.009C31.0833 10.0031 31.12 9.99721 31.1507 9.97956C31.2426 9.93249 31.2426 9.83246 31.1445 9.78538C31.1078 9.76773 31.0587 9.76184 31.0158 9.76184C30.8625 9.76773 30.7093 9.76773 30.556 9.76773C30.5008 9.76773 30.4456 9.77361 30.3904 9.77949C30.3598 9.78538 30.323 9.78538 30.2985 9.80303C30.2556 9.82068 30.2311 9.8501 30.2311 9.89129C30.2372 9.93249 30.2556 9.95602 30.2985 9.97367C30.323 9.99133 30.3537 9.99721 30.3843 9.99721C30.4579 10.0031 30.5376 10.0149 30.6173 10.0207ZM32.3033 10.2914C32.3033 10.2973 32.3094 10.3032 32.3094 10.3032C32.3339 10.4621 32.3585 10.6151 32.3768 10.768C32.383 10.821 32.3891 10.8681 32.4259 10.9093C32.5056 11.0093 32.6282 10.9975 32.6834 10.8916C32.7079 10.8386 32.714 10.7857 32.7018 10.7269C32.665 10.5503 32.6466 10.3738 32.6098 10.2032C32.5853 10.0972 32.5547 9.99721 32.524 9.90306C32.5056 9.84422 32.4627 9.80303 32.3891 9.79715C32.3156 9.78538 32.2604 9.82068 32.2297 9.87364C32.1929 9.92071 32.1623 9.96779 32.1377 10.0207C32.0948 10.1149 32.058 10.209 32.009 10.2973C32.0028 10.3208 31.9967 10.3385 31.9845 10.3561C31.9784 10.3444 31.9722 10.3385 31.9722 10.3385C31.8925 10.1914 31.8189 10.0443 31.7393 9.90306C31.727 9.89129 31.7208 9.87953 31.7147 9.86776C31.6779 9.8148 31.635 9.78538 31.5676 9.78538C31.5063 9.79126 31.4572 9.82657 31.4266 9.87953C31.4143 9.90306 31.4143 9.92071 31.4082 9.94425C31.3836 10.1325 31.353 10.3208 31.3285 10.5091C31.3162 10.6151 31.3101 10.721 31.3101 10.8269C31.304 10.8504 31.3101 10.8798 31.3223 10.9034C31.3346 10.9504 31.3714 10.9799 31.4204 10.9858C31.4817 10.9916 31.5246 10.974 31.5431 10.9269C31.5614 10.8916 31.5676 10.8622 31.5737 10.8328C31.5982 10.7269 31.6166 10.6268 31.635 10.5268C31.6473 10.4679 31.6534 10.4209 31.6718 10.3561C31.6841 10.3797 31.6963 10.3973 31.7086 10.415C31.7637 10.4856 31.8189 10.5562 31.8864 10.6151C31.9538 10.6621 32.009 10.6562 32.0642 10.6033C32.0765 10.5915 32.0826 10.5856 32.0948 10.5739C32.15 10.4915 32.2175 10.4091 32.2726 10.3267C32.2849 10.315 32.291 10.3032 32.3033 10.2914Z" fill="#3A3B7B"/>
<path d="M18.1771 10.1363C18.1345 10.2481 18.1264 10.3287 18.146 10.3956C18.1678 10.4867 18.2242 10.5165 18.3007 10.4934C19.0208 10.3224 20.5999 10.8076 21.1845 10.9428C21.3224 10.9711 21.4346 10.8003 21.3405 10.6472C21.2032 10.4988 19.6248 9.86383 19.0226 9.8292C18.7865 9.8164 18.3645 9.7583 18.1771 10.1363Z" fill="#3A3B7B"/>
<path d="M24.3484 8.08066C24.4252 8.12317 24.4681 8.16373 24.4892 8.20904C24.5208 8.26848 24.5041 8.30961 24.4511 8.33059C23.9751 8.55356 23.3417 9.5135 23.086 9.84458C23.0241 9.92074 22.8811 9.87648 22.8595 9.75124C22.8639 9.60962 23.4254 8.56787 23.7388 8.28413C23.8619 8.17335 24.0654 7.95599 24.3484 8.08066Z" fill="#3A3B7B"/>
<path d="M20.5576 7.60815C20.6498 7.54146 20.7456 7.51808 20.7946 7.56143C21.5128 8.15093 21.8936 9.08445 22.1294 9.93907C22.1383 9.95898 22.1389 9.98756 22.1318 10.0174C22.1288 10.0428 22.1094 10.0698 22.0786 10.0906C22.0457 10.1136 22.0174 10.1206 22.0041 10.1008C21.6893 9.68984 19.8915 8.09107 20.5576 7.60815Z" fill="#3A3B7B"/>
<path d="M5.3491 17.8285C5.52123 17.7055 5.70836 17.6031 5.90638 17.5237C6.11356 17.4668 6.33439 17.4762 6.5355 17.5506C6.73655 17.6249 6.907 17.76 7.02094 17.9355C7.12287 18.1106 7.16274 18.3127 7.13461 18.5115C7.10647 18.7102 7.01183 18.8947 6.86489 19.0373C6.751 19.153 6.62168 19.2537 6.48039 19.3369C5.85067 19.7273 5.21534 20.0964 4.58004 20.4868C4.45005 20.5846 4.31214 20.6722 4.16765 20.7489C3.94786 20.8541 3.69668 20.8823 3.45754 20.8286C3.2184 20.7749 3.00634 20.6426 2.85803 20.4548C2.74716 20.3217 2.65359 20.1763 2.57938 20.0215C1.97752 18.8074 1.35336 17.5985 0.773781 16.363C0.506282 15.8281 0.288942 15.213 0.0771737 14.6193C-0.0144471 14.4468 -0.0323386 14.2468 0.0273089 14.0619C0.0869565 13.8769 0.219437 13.7215 0.39657 13.6289C0.573704 13.5362 0.781511 13.5135 0.975802 13.5657C1.17009 13.6178 1.33554 13.7406 1.43695 13.9079C1.74865 14.3055 2.02458 14.7278 2.26173 15.1703C2.8636 16.24 3.43761 17.3097 4.01718 18.3474C4.05093 18.4047 4.08814 18.46 4.12864 18.5132C4.56487 18.3371 4.97516 18.107 5.3491 17.8285Z" fill="#3A3B7B"/>
<path d="M11.572 17.4553C10.1955 19.0011 7.88834 18.6106 6.72919 16.6209C5.9044 15.2089 5.75951 12.8768 7.55399 11.4059C7.93718 11.098 8.39538 10.8882 8.88588 10.7962C9.48728 10.7134 10.1005 10.8153 10.638 11.0871C11.1755 11.359 11.6097 11.7869 11.8785 12.3099C12.8593 14.0215 12.72 16.2037 11.572 17.4553ZM11.0147 13.8503C10.8685 13.4297 10.5751 13.0706 10.1843 12.834C9.96324 12.6828 9.69455 12.6092 9.42358 12.6258C9.15255 12.6423 8.89579 12.748 8.69641 12.9249C7.89951 13.6042 7.73229 15.2142 8.31187 16.1716C8.38575 16.3278 8.49423 16.4665 8.62981 16.5782C8.76539 16.6898 8.92476 16.7717 9.09675 16.818C9.26874 16.8644 9.44919 16.8742 9.62552 16.8466C9.80186 16.819 9.96973 16.7547 10.1175 16.6583C10.5495 16.3369 10.8664 15.8943 11.0242 15.392C11.182 14.8897 11.1729 14.3527 10.998 13.8557L11.0147 13.8503Z" fill="#3A3B7B"/>
<path d="M17.1895 14.5243C17.0485 14.5534 16.903 14.5551 16.7613 14.5294C16.6197 14.5036 16.4848 14.451 16.3647 14.3745C16.2596 14.3168 16.1691 14.2375 16.0998 14.1422C16.0304 14.0469 15.984 13.9381 15.9638 13.8235C15.9435 13.7089 15.95 13.5915 15.9826 13.4796C16.0153 13.3677 16.0735 13.2642 16.1529 13.1764C16.2913 13 16.4877 12.8738 16.7102 12.8181C17.2913 12.6562 17.8895 12.5575 18.4935 12.5239C18.6263 12.5091 18.7607 12.5199 18.889 12.5556C19.0173 12.5914 19.1369 12.6513 19.2407 12.7321C19.3445 12.8128 19.4305 12.9126 19.4936 13.0256C19.5567 13.1387 19.5956 13.2627 19.6081 13.3904C19.7822 14.0175 19.8013 14.6751 19.6638 15.3106C19.1623 17.3644 17.4347 18.0705 15.4953 17.4126C14.9509 17.2367 14.4736 16.9089 14.1244 16.4712C13.6586 15.9441 13.3284 15.3194 13.1603 14.6473C13.0241 14.0489 13.039 13.4279 13.2038 12.8361C13.3686 12.2443 13.6785 11.6989 14.1077 11.2455C14.5149 10.7527 15.0435 10.3649 15.6458 10.117C16.0264 9.91563 16.4717 9.85839 16.8941 9.9565C16.9899 9.98196 17.0769 10.0315 17.146 10.1001C17.2152 10.1687 17.2639 10.2538 17.2872 10.3466C17.3105 10.4394 17.3076 10.5364 17.2786 10.6277C17.2496 10.719 17.1958 10.8012 17.1226 10.8658C16.9834 10.9867 16.8322 11.0942 16.6712 11.1867C16.1757 11.4895 15.7446 11.8797 15.4006 12.3367C15.1751 12.6323 15.0198 12.9719 14.9457 13.3313C14.8715 13.6908 14.8803 14.0615 14.9715 14.4173C15.0979 14.9025 15.3783 15.338 15.774 15.6635C17 16.7333 18.5938 15.701 18.3152 14.2408C17.9084 14.3371 17.5517 14.4387 17.1895 14.5243Z" fill="#3A3B7B"/>
<path d="M24.6794 17.541C22.8683 18.6108 20.8063 17.541 20.3549 15.2946C20.0261 13.69 20.6503 11.4435 22.8349 10.5877C23.2996 10.4096 23.8038 10.347 24.3005 10.4059C24.8973 10.5107 25.4447 10.7927 25.8656 11.2121C26.2865 11.6314 26.5598 12.167 26.6467 12.7433C27.0145 14.6527 26.1785 16.6906 24.6794 17.541ZM25.3092 13.9414C25.3086 13.497 25.1449 13.0671 24.8467 12.7272C24.6872 12.517 24.4568 12.3664 24.1946 12.301C23.9324 12.2357 23.6547 12.2596 23.4088 12.3689C22.428 12.7753 21.737 14.2516 21.9878 15.3374C22.0069 15.5078 22.0646 15.6721 22.1568 15.8189C22.249 15.9656 22.3735 16.0913 22.5216 16.1871C22.6697 16.2828 22.8378 16.3464 23.0141 16.3734C23.1905 16.4002 23.3709 16.3899 23.5426 16.3429C24.061 16.1691 24.5099 15.8443 24.8266 15.4137C25.1433 14.9831 25.3121 14.4684 25.3092 13.9414Z" fill="#3A3B7B"/>
<path d="M28.4783 17.9903C28.451 18.1861 28.3438 18.3634 28.1802 18.4833C28.0166 18.6031 27.8101 18.6557 27.6062 18.6295C27.4022 18.6032 27.2175 18.5003 27.0926 18.3433C26.9677 18.1863 26.9129 17.9882 26.9402 17.7924C26.9676 17.5966 27.0748 17.4193 27.2384 17.2994C27.4019 17.1796 27.6084 17.127 27.8124 17.1532C28.0163 17.1795 28.2011 17.2824 28.326 17.4394C28.4509 17.5964 28.5057 17.7946 28.4783 17.9903ZM27.9935 10.7749C28.0995 10.6195 28.255 10.5012 28.4368 10.4376C28.6185 10.374 28.8169 10.3685 29.0022 10.4219C29.1906 10.4671 29.357 10.5731 29.4737 10.7221C29.5904 10.8711 29.6501 11.054 29.6431 11.2402C29.6185 11.539 29.5719 11.8357 29.5038 12.1281C29.3198 13.1176 29.1415 14.1071 28.9465 15.086C28.8573 15.4764 28.7403 15.8508 28.6121 16.2466C28.5675 16.3703 28.493 16.4821 28.3948 16.5729C28.3337 16.6412 28.2557 16.6935 28.1679 16.7251C28.0801 16.7568 27.9855 16.7666 27.8927 16.7538C27.7999 16.741 27.712 16.706 27.6371 16.6519C27.5621 16.5978 27.5027 16.5265 27.4641 16.4445C27.3978 16.2974 27.3618 16.1394 27.3582 15.9792C27.3582 15.3159 27.3582 14.6474 27.4028 13.9788C27.4785 13.0246 27.6275 12.0771 27.8486 11.144C27.8746 11.0189 27.9237 10.8994 27.9935 10.7909V10.7749Z" fill="#3A3B7B"/>
<path fill-rule="evenodd" clip-rule="evenodd" d="M2.99459 22.2884C2.92879 22.4294 2.91074 22.5865 2.9429 22.7378C2.96429 22.9372 3.01127 23.1333 3.08278 23.3217C3.17205 23.5523 3.27195 23.7804 3.39513 24.0616C3.42346 24.1263 3.45306 24.1938 3.48403 24.2649C3.65014 24.6457 3.85857 25.1325 4.13658 25.8369C4.21527 26.0371 4.28514 26.2388 4.35551 26.442C4.38393 26.524 4.41246 26.6064 4.44166 26.6889C4.54633 26.9824 4.72643 27.246 4.96516 27.4549C5.06653 27.5697 5.20099 27.6534 5.35176 27.6952C5.50548 27.7379 5.66896 27.7352 5.82104 27.6875C5.97312 27.6397 6.10669 27.5492 6.20442 27.4276C6.30023 27.3083 6.3572 27.1646 6.36827 27.0145C6.43043 26.7221 6.40921 26.4189 6.30677 26.137C6.14417 25.6689 5.95896 25.2001 5.74537 24.7416L5.74439 24.7396C5.39303 24.0223 5.03587 23.3099 4.66182 22.5972L4.65902 22.5922C4.54952 22.4066 4.40721 22.2406 4.23849 22.1018C4.12896 21.9778 3.97788 21.8942 3.81103 21.8654C3.64062 21.836 3.46488 21.8657 3.31516 21.9491C3.17353 22.0267 3.06126 22.1455 2.99459 22.2884Z" fill="#3A3B7B"/>
<path fill-rule="evenodd" clip-rule="evenodd" d="M8.36111 20.522C7.81018 20.3851 7.23481 20.3651 6.6751 20.4636C6.24158 20.5046 5.8152 20.6005 5.51913 20.7907C5.36855 20.8874 5.2468 21.0116 5.17908 21.1696C5.11098 21.3283 5.10229 21.5099 5.15809 21.7122C5.25998 22.0828 5.39229 22.4432 5.52413 22.8023L5.54549 22.8605L5.546 22.8618C5.94298 23.9052 6.34374 24.9451 6.74815 25.9814C6.79531 26.1448 6.862 26.3023 6.94687 26.4509L6.94846 26.4537C7.06058 26.6383 7.20439 26.8034 7.37381 26.9421C7.45854 27.0183 7.56332 27.0711 7.67694 27.0947C7.79167 27.1184 7.91099 27.1115 8.0219 27.0747C8.13285 27.0378 8.23109 26.9724 8.30596 26.8856C8.37961 26.8003 8.42784 26.6974 8.44556 26.5879C8.51865 26.2906 8.49524 25.9788 8.3784 25.6946C8.34194 25.5989 8.31334 25.5012 8.2832 25.3983C8.27315 25.3639 8.26296 25.329 8.25221 25.2935C9.17791 24.9462 10.1629 24.4792 10.5092 23.3928C10.6449 23.0174 10.6562 22.6109 10.5416 22.229C10.4269 21.8467 10.1916 21.5079 9.86806 21.2591C9.42776 20.9109 8.91343 20.6593 8.36111 20.522ZM6.834 21.8546C6.85223 21.8495 6.8706 21.8448 6.88901 21.8405C7.49167 21.7495 8.10826 21.8707 8.62526 22.1816C8.8531 22.3336 8.94643 22.5026 8.96246 22.6652C8.979 22.8326 8.91558 23.014 8.78818 23.1884C8.54744 23.5178 8.10812 23.7814 7.71129 23.8306C7.42199 23.1911 7.12821 22.5258 6.834 21.8546Z" fill="#3A3B7B"/>
<path d="M12.034 19.3516C12.6901 19.0607 13.5028 19.0105 14.1388 19.215C14.2989 19.2598 14.4379 19.3566 14.5319 19.489C14.6252 19.6205 14.6683 19.779 14.6539 19.9375C14.653 20.0403 14.6267 20.1415 14.5772 20.2328C14.5268 20.3258 14.4539 20.4057 14.3645 20.4659C14.2751 20.526 14.172 20.5647 14.0638 20.5785C13.9556 20.5924 13.8455 20.581 13.7428 20.5453L13.735 20.5426L13.7277 20.5389C13.6751 20.5125 13.6193 20.4927 13.5616 20.4797L13.558 20.4789C13.1106 20.3649 12.6886 20.5539 12.5345 20.7861C12.461 20.8968 12.4519 21.0085 12.5131 21.1102C12.5787 21.219 12.7395 21.3412 13.0649 21.4283C13.1544 21.4519 13.2461 21.4746 13.3392 21.4977C13.5965 21.5617 13.8639 21.6281 14.1225 21.7202L14.1235 21.7206C15.3165 22.1562 15.7607 23.0585 15.6087 23.9071C15.4582 24.7464 14.728 25.5101 13.6298 25.6903C13.2302 25.7753 12.8143 25.7587 12.4234 25.6423C12.0315 25.5254 11.6782 25.3122 11.3987 25.0237L11.3914 25.0162C11.3031 24.9075 11.2438 24.7799 11.2175 24.6444C11.1933 24.5221 11.206 24.3958 11.2542 24.2802C11.302 24.1653 11.383 24.0659 11.4874 23.9935C11.5978 23.9113 11.7308 23.8621 11.87 23.8518C12.0088 23.8416 12.1476 23.8705 12.2695 23.935C12.3912 23.9915 12.5043 24.0634 12.606 24.149L12.6079 24.1506C12.7876 24.3084 13.0051 24.3495 13.2136 24.3114C13.4252 24.2728 13.6241 24.1526 13.7521 23.9932C13.8792 23.8348 13.9303 23.6466 13.8697 23.4639C13.8088 23.2799 13.6255 23.0737 13.2229 22.9014C13.1176 22.8585 13.0085 22.8239 12.895 22.7902C12.8644 22.7811 12.8332 22.7721 12.8017 22.7629C12.7178 22.7385 12.6314 22.7133 12.5467 22.6855C12.4884 22.6664 12.4306 22.6483 12.3733 22.6304C12.2166 22.5815 12.064 22.5337 11.917 22.4697C11.5972 22.3652 11.3209 22.1646 11.1292 21.8974C10.9368 21.6292 10.8399 21.3085 10.8531 20.9831C10.8541 20.1902 11.3745 19.644 12.034 19.3516Z" fill="#3A3B7B"/>
<path d="M20.3518 19.2672C20.2246 19.2075 20.0839 19.1792 19.9425 19.1848C19.801 19.1904 19.6633 19.2296 19.5416 19.2991C19.4207 19.3681 19.3195 19.4648 19.2469 19.5804C19.1804 19.6778 19.1344 19.7867 19.1115 19.9011C19.0885 20.0154 19.0891 20.1328 19.113 20.2468C19.1367 20.3934 19.163 20.5359 19.1889 20.6764C19.2319 20.9089 19.2737 21.1362 19.3013 21.368L19.3023 21.3739C19.365 21.7374 19.3979 22.105 19.4008 22.4734L19.4011 22.4786C19.4226 22.8765 19.2813 23.2666 19.0077 23.5661L19.0034 23.5715C18.9143 23.681 18.7953 23.7646 18.6595 23.8129C18.5238 23.8612 18.3768 23.8723 18.2348 23.8449C18.0929 23.8176 17.9617 23.7529 17.8559 23.6581C17.7501 23.5633 17.6738 23.4417 17.6357 23.3077C17.5543 23.0252 17.5073 22.7347 17.4953 22.4419L17.6342 20.3194C17.6363 20.2917 17.6386 20.2633 17.641 20.2346C17.6463 20.1701 17.6517 20.1045 17.6539 20.0432C17.6572 19.9531 17.6544 19.8604 17.6325 19.7727C17.6102 19.6831 17.5676 19.5978 17.4921 19.5252C17.4173 19.4533 17.3163 19.4003 17.1893 19.3641C16.9596 19.3003 16.7654 19.3023 16.6035 19.3683C16.4416 19.4342 16.3306 19.5566 16.2521 19.698C16.1742 19.8382 16.1241 20.0042 16.0863 20.1704C16.0582 20.2938 16.0356 20.4233 16.0142 20.5466C16.0067 20.5891 15.9995 20.6308 15.9922 20.6713L15.992 20.6725C15.8772 21.3485 15.843 22.0349 15.8901 22.7184C15.8989 23.0878 15.9792 23.4524 16.1268 23.7936C16.2935 24.2338 16.5952 24.6152 16.9923 24.8875C17.3903 25.1603 17.8652 25.3107 18.3541 25.3186C18.8431 25.3265 19.323 25.1917 19.7304 24.932C20.1371 24.6727 20.4523 24.301 20.6343 23.8661C20.8888 23.3121 21.0084 22.7097 20.9837 22.1046C20.9687 21.6629 20.9437 21.2178 20.9188 20.775C20.9065 20.5577 20.8943 20.341 20.8834 20.1255C20.8779 19.9095 20.8037 19.7002 20.6707 19.5259C20.5884 19.4156 20.4788 19.3267 20.3518 19.2672Z" fill="#3A3B7B"/>
<path d="M24.8545 22.5951C24.8416 22.6109 24.828 22.6271 24.8138 22.6441C24.7103 22.0712 24.6144 21.4984 24.5183 20.9248C24.4839 20.719 24.4493 20.5123 24.4144 20.3063L24.4105 20.2833L24.3978 20.2634C24.3738 20.226 24.3714 20.1894 24.3714 20.1112V20.1022L24.37 20.0932C24.344 19.9318 24.2679 19.7815 24.1517 19.6621C24.0358 19.5431 23.8852 19.4602 23.7197 19.4243C23.5544 19.3851 23.3806 19.3938 23.2204 19.4491C23.0605 19.5043 22.9212 19.6035 22.8198 19.7342C22.7355 19.8345 22.6664 19.9458 22.6146 20.0648C22.497 20.3209 22.3785 20.5778 22.2596 20.8353L22.2575 20.8397C21.9607 21.4826 21.6619 22.1298 21.3717 22.7821L21.3708 22.7842C21.1927 23.2071 21.0457 23.6528 20.8992 24.0971C20.8699 24.1857 20.8407 24.2744 20.8112 24.3628C20.7583 24.503 20.7351 24.6519 20.7431 24.8008C20.7335 24.934 20.7667 25.067 20.8384 25.1816C20.9115 25.2986 21.021 25.3907 21.1514 25.4448C21.2897 25.503 21.4442 25.5154 21.5906 25.4799C21.7367 25.4446 21.8665 25.3636 21.9594 25.2499C22.0781 25.1097 22.1803 24.9568 22.2635 24.7949C22.5093 24.3124 22.7442 23.8239 22.978 23.3376C23.0685 23.1496 23.1564 22.9811 23.2565 22.7976C23.2633 22.8202 23.2703 22.8423 23.2776 22.8644C23.3824 23.3074 23.5594 23.7316 23.8019 24.1217C23.8478 24.2043 23.9117 24.2765 23.9893 24.3334C24.0678 24.3909 24.1584 24.4313 24.2548 24.4518C24.3513 24.4723 24.4512 24.4724 24.5476 24.4521C24.644 24.4318 24.7349 24.3914 24.8134 24.3341L24.9689 24.2224L26.1758 23.2467L26.1044 23.6832C26.0065 24.2833 25.9092 24.8783 25.806 25.4735C25.7384 25.7373 25.7385 26.0128 25.8062 26.2765C25.8356 26.4249 25.9104 26.5615 26.021 26.669C26.1326 26.7773 26.2756 26.8509 26.4313 26.8802C26.587 26.9096 26.7483 26.8933 26.8943 26.8335C27.0382 26.7747 27.1605 26.6762 27.246 26.5508C27.445 26.3138 27.5689 26.0269 27.6029 25.7243C27.6541 25.2969 27.712 24.8637 27.7699 24.4306C27.8366 23.9314 27.9033 23.4323 27.9596 22.9429L27.9598 22.9414C28.014 22.4056 28.0402 21.8676 28.0384 21.3292C28.0503 21.1591 28.0062 20.9896 27.9121 20.8448C27.8178 20.6995 27.678 20.5865 27.5129 20.5218C27.3411 20.4469 27.1487 20.4268 26.9642 20.4647C26.7808 20.5023 26.6149 20.5951 26.4904 20.7295C26.2678 20.9271 26.0589 21.1385 25.8652 21.3624L25.8639 21.364C25.6524 21.6169 25.4424 21.8748 25.2337 22.131C25.1068 22.2867 24.9803 22.4421 24.8545 22.5951Z" fill="#3A3B7B"/>
</g>
<defs>
<clipPath id="clip0_1554_1964">
<rect width="32.7153" height="20.186" fill="white" transform="translate(-0.00732422 7.53943)"/>
</clipPath>
</defs>
</svg>
