<svg width="39" height="35" viewBox="0 0 39 35" fill="none" xmlns="http://www.w3.org/2000/svg">
<rect x="0.0424805" y="0.685425" width="33.4113" height="33.4113" rx="5.56856" fill="#F5F7FA"/>
<g clip-path="url(#clip0_1554_1960)">
<path d="M38.3233 14.2702C38.3273 14.2412 38.3273 14.2118 38.3233 14.1828C38.3271 14.1592 38.3271 14.135 38.3233 14.1113L38.0397 12.07C37.9988 11.8258 37.8894 11.5975 37.7238 11.4108L37.6751 11.3552L37.586 11.2678L32.6762 7.12159L32.814 7.25663C32.7013 7.12445 32.5599 7.01873 32.4 6.94725C32.2402 6.87577 32.066 6.84035 31.8904 6.84359H30.3996C30.1572 6.83888 29.9203 6.91444 29.7271 7.05805C29.5243 6.91531 29.28 6.84013 29.0304 6.84359H27.5396C27.3441 6.84048 27.1512 6.88805 26.9805 6.9815C26.8097 7.07495 26.6672 7.21097 26.5674 7.37576C26.4134 7.61114 26.3555 7.89473 26.4053 8.17005L26.5917 9.4568C26.4682 9.38819 26.3285 9.35259 26.1866 9.35355H18.9677C18.7087 9.35514 18.4557 9.42957 18.2385 9.568C18.0285 9.69685 17.86 9.88136 17.7524 10.1002L17.1934 9.63154C16.9733 9.43196 16.6829 9.32378 16.3832 9.32972H5.05664C4.79672 9.33436 4.54257 9.40555 4.31938 9.53623C4.01404 9.71144 3.79026 9.99633 3.69552 10.3305L0.0982472 22.1257C0.0310335 22.3201 0.0244215 22.5297 0.0792581 22.7278C0.134095 22.9258 0.247897 23.1034 0.406125 23.2378C0.447355 23.272 0.490646 23.3038 0.53576 23.333C0.53576 23.333 0.46283 23.2854 0.42232 23.2457L5.33213 27.3998C5.53982 27.5873 5.81137 27.6921 6.09366 27.6937H17.5094C17.7701 27.687 18.0244 27.6131 18.2467 27.4792C18.3723 27.4119 18.4848 27.3231 18.5788 27.2171L18.6193 27.1615L18.6841 27.0821L18.7327 26.9947L19.2675 27.4475C19.4722 27.6275 19.7379 27.7265 20.0129 27.7255H31.4528C31.7133 27.717 31.9671 27.6431 32.1901 27.511C32.313 27.4395 32.4248 27.3513 32.5223 27.2489L32.5628 27.1933L32.6276 27.1139C32.6621 27.0636 32.6919 27.0105 32.7167 26.955C32.7432 26.9068 32.7649 26.8563 32.7815 26.8041L36.0628 16.0335V15.9382C36.0669 15.9012 36.0669 15.864 36.0628 15.827V15.7555C36.0668 15.7318 36.0668 15.7077 36.0628 15.684C36.0665 15.6338 36.0665 15.5834 36.0628 15.5331H37.1161C37.2077 15.5413 37.2999 15.5413 37.3915 15.5331H37.4645C37.5238 15.5158 37.5809 15.4918 37.6346 15.4616H37.7157L37.8615 15.3504L37.9263 15.3028L38.0397 15.1598V15.1122L38.1207 14.9771C38.1162 14.9509 38.1162 14.924 38.1207 14.8977C38.1164 14.8848 38.1164 14.8709 38.1207 14.858C38.138 14.8114 38.1515 14.7636 38.1613 14.715C38.1575 14.6993 38.1575 14.683 38.1613 14.6673C38.1573 14.6437 38.1573 14.6195 38.1613 14.5959C38.1613 14.5959 38.3233 14.2861 38.3233 14.2702Z" fill="black"/>
<path d="M16.7154 10.2352C16.7584 10.2734 16.7884 10.3235 16.8015 10.3789C16.8145 10.4343 16.8099 10.4923 16.7883 10.545L13.1992 22.3323C13.154 22.461 13.0615 22.5686 12.9399 22.6341C12.8409 22.699 12.7264 22.7373 12.6077 22.7453H1.20015C1.10273 22.7407 1.01043 22.7012 0.940885 22.6341C0.899512 22.5966 0.870474 22.5478 0.857484 22.4941C0.844495 22.4403 0.848153 22.384 0.86797 22.3323L4.46524 10.545C4.50669 10.4147 4.59625 10.3042 4.7164 10.2352C4.81698 10.175 4.93097 10.1396 5.04858 10.132H16.4561C16.5528 10.1329 16.6455 10.1698 16.7154 10.2352ZM10.7604 19.9574L12.9075 12.9199H6.89584L4.7569 19.9574H10.7604ZM27.6044 10.3544C27.6433 10.3987 27.692 10.4339 27.7467 10.4573C27.8014 10.4806 27.8608 10.4916 27.9204 10.4894H29.4031C29.4595 10.49 29.5151 10.4764 29.5648 10.45C29.6144 10.4236 29.6563 10.3852 29.6866 10.3385C29.7129 10.302 29.7316 10.2607 29.7413 10.217C29.751 10.1734 29.7517 10.1283 29.7433 10.0843L29.4517 7.9874C29.4239 7.89035 29.374 7.80074 29.3059 7.72528C29.2669 7.68094 29.2183 7.64577 29.1636 7.6224C29.1089 7.59902 29.0495 7.58804 28.9899 7.59025H27.5072C27.4507 7.58972 27.3951 7.60329 27.3455 7.6297C27.2959 7.6561 27.2539 7.69447 27.2236 7.74117C27.1669 7.85237 27.1426 7.92386 27.1669 7.9874L27.4667 10.0843C27.4821 10.1864 27.5303 10.281 27.6044 10.3544ZM32.3117 7.97151C32.2839 7.87446 32.234 7.78484 32.1658 7.7094C32.1286 7.66522 32.0813 7.63006 32.028 7.60664C31.9746 7.58323 31.9164 7.57218 31.858 7.57437H30.3672C30.3117 7.57282 30.2567 7.58603 30.2082 7.61259C30.1598 7.63916 30.1195 7.67811 30.0917 7.72528C30.0378 7.79575 30.0145 7.88426 30.0269 7.97151L30.3267 10.0684C30.3455 10.1695 30.3932 10.2631 30.4644 10.3385C30.504 10.382 30.5528 10.4165 30.6074 10.4398C30.6619 10.4632 30.7209 10.4746 30.7804 10.4735H32.2712C32.3266 10.4742 32.3811 10.4607 32.4295 10.4342C32.4778 10.4077 32.5182 10.3692 32.5466 10.3226C32.5748 10.2871 32.5945 10.2458 32.6043 10.2018C32.6142 10.1578 32.6138 10.1123 32.6033 10.0684L32.3117 7.97151ZM26.3 11.1487L26.1541 10.1161H18.9677C18.8549 10.1222 18.7457 10.1579 18.6517 10.2194C18.5921 10.2513 18.5401 10.2955 18.4996 10.349C18.459 10.4024 18.4308 10.4639 18.4168 10.5291L17.8173 12.4989C17.7933 12.5482 17.7851 12.6034 17.7938 12.6573C17.8025 12.7112 17.8276 12.7612 17.8659 12.8008C17.9342 12.8638 18.0234 12.9005 18.117 12.9041H26.851L24.7039 19.9415H15.9943C15.882 19.944 15.7726 19.977 15.6784 20.0368C15.5638 20.1081 15.4801 20.2184 15.4434 20.3465L14.8357 22.3164C14.8159 22.3669 14.8107 22.4219 14.8207 22.4751C14.8307 22.5284 14.8555 22.5779 14.8924 22.6182C14.9586 22.6854 15.0485 22.7252 15.1436 22.7294H26.5836C26.7019 22.7194 26.8159 22.6813 26.9157 22.6182C27.0354 22.5523 27.1251 22.4445 27.1669 22.3164L30.4563 11.5458H26.7537C26.695 11.5469 26.6366 11.5363 26.5823 11.5144C26.5279 11.4925 26.4788 11.46 26.4378 11.4187C26.3708 11.3467 26.3234 11.2593 26.3 11.1646V11.1487Z" fill="white"/>
</g>
<defs>
<clipPath id="clip0_1554_1960">
<rect width="38.2838" height="20.8821" fill="white" transform="translate(0.0424805 6.84338)"/>
</clipPath>
</defs>
</svg>
