<svg width="14" height="13" viewBox="0 0 14 13" fill="none" xmlns="http://www.w3.org/2000/svg">
<g clip-path="url(#clip0_1645_333)">
<path fill-rule="evenodd" clip-rule="evenodd" d="M12.4608 0.766995C12.6026 0.908804 12.6506 1.11931 12.5844 1.3086L8.93002 11.7496C8.8593 11.9517 8.67243 12.0901 8.45855 12.0988C8.24468 12.1075 8.04715 11.9848 7.96021 11.7892L5.95355 7.27422L1.43857 5.26756C1.24297 5.18063 1.12025 4.9831 1.12898 4.76923C1.1377 4.55535 1.2761 4.36848 1.47813 4.29776L11.9192 0.643398C12.1085 0.577147 12.319 0.625186 12.4608 0.766995ZM6.97174 6.99433L8.37953 10.1619L10.8432 3.12291L6.97174 6.99433ZM10.1049 2.38461L3.06592 4.84825L6.23345 6.25604L10.1049 2.38461Z" fill="white"/>
</g>
<defs>
<clipPath id="clip0_1645_333">
<rect width="12.5293" height="12.5293" fill="white" transform="translate(0.606445 0.092041)"/>
</clipPath>
</defs>
</svg>
