<svg width="24" height="23" viewBox="0 0 24 23" fill="none" xmlns="http://www.w3.org/2000/svg">
<path opacity="0.1" fill-rule="evenodd" clip-rule="evenodd" d="M0.851562 11.7744C0.851562 5.62358 5.83782 0.637329 11.9887 0.637329C18.1395 0.637329 23.1258 5.62358 23.1258 11.7744C23.1258 17.9253 18.1395 22.9116 11.9887 22.9116C5.83782 22.9116 0.851562 17.9253 0.851562 11.7744Z" fill="white"/>
<path fill-rule="evenodd" clip-rule="evenodd" d="M11.9889 5.83466C10.3758 5.83466 10.1733 5.84171 9.53973 5.87054C8.90739 5.8995 8.47576 5.99961 8.09808 6.1465C7.70741 6.29821 7.37602 6.50116 7.04586 6.83144C6.71546 7.16159 6.51251 7.49299 6.3603 7.88353C6.21304 8.26133 6.11281 8.69309 6.08435 9.32519C6.05601 9.95877 6.04858 10.1613 6.04858 11.7745C6.04858 13.3877 6.05576 13.5895 6.08447 14.2231C6.11355 14.8554 6.21366 15.2871 6.36043 15.6647C6.51226 16.0554 6.71521 16.3868 7.04549 16.717C7.37552 17.0474 7.70692 17.2508 8.09734 17.4025C8.47526 17.5494 8.90702 17.6495 9.53924 17.6785C10.1728 17.7073 10.3752 17.7144 11.9882 17.7144C13.6015 17.7144 13.8033 17.7073 14.4369 17.6785C15.0692 17.6495 15.5014 17.5494 15.8793 17.4025C16.2698 17.2508 16.6007 17.0474 16.9308 16.717C17.2612 16.3868 17.4641 16.0554 17.6163 15.6649C17.7623 15.2871 17.8626 14.8553 17.8923 14.2232C17.9207 13.5896 17.9282 13.3877 17.9282 11.7745C17.9282 10.1613 17.9207 9.95889 17.8923 9.32531C17.8626 8.69296 17.7623 8.26133 17.6163 7.88366C17.4641 7.49299 17.2612 7.16159 16.9308 6.83144C16.6004 6.50103 16.27 6.29809 15.8789 6.1465C15.5003 5.99961 15.0684 5.8995 14.436 5.87054C13.8024 5.84171 13.6007 5.83466 11.9871 5.83466H11.9889ZM11.4561 6.90505C11.6142 6.9048 11.7907 6.90505 11.9889 6.90505C13.5748 6.90505 13.7628 6.91074 14.3891 6.9392C14.9682 6.96569 15.2826 7.06246 15.4919 7.14376C15.7691 7.25142 15.9668 7.38012 16.1745 7.58801C16.3824 7.7959 16.5111 7.9939 16.619 8.27109C16.7003 8.48023 16.7972 8.79454 16.8236 9.37368C16.852 9.99984 16.8582 10.1879 16.8582 11.7731C16.8582 13.3583 16.852 13.5464 16.8236 14.1726C16.7971 14.7517 16.7003 15.066 16.619 15.2752C16.5114 15.5524 16.3824 15.7497 16.1745 15.9575C15.9666 16.1654 15.7693 16.2941 15.4919 16.4018C15.2828 16.4834 14.9682 16.58 14.3891 16.6064C13.7629 16.6349 13.5748 16.6411 11.9889 16.6411C10.4028 16.6411 10.2149 16.6349 9.58871 16.6064C9.00958 16.5797 8.69526 16.4829 8.48576 16.4016C8.20856 16.294 8.01057 16.1653 7.80267 15.9574C7.59478 15.7495 7.46608 15.552 7.35817 15.2747C7.27687 15.0655 7.17998 14.7512 7.15362 14.1721C7.12516 13.5459 7.11946 13.3578 7.11946 11.7716C7.11946 10.1855 7.12516 9.99835 7.15362 9.37219C7.1801 8.79306 7.27687 8.47874 7.35817 8.26936C7.46583 7.99217 7.59478 7.79417 7.80267 7.58628C8.01057 7.37838 8.20856 7.24969 8.48576 7.14178C8.69514 7.06011 9.00958 6.96358 9.58871 6.93698C10.1367 6.91223 10.349 6.9048 11.4561 6.90357V6.90505ZM15.1596 7.89132C14.766 7.89132 14.4468 8.21021 14.4468 8.60385C14.4468 8.99737 14.766 9.31663 15.1596 9.31663C15.5531 9.31663 15.8723 8.99737 15.8723 8.60385C15.8723 8.21034 15.5531 7.89132 15.1596 7.89132ZM11.9889 8.72413C10.3044 8.72413 8.93858 10.0899 8.93858 11.7745C8.93858 13.4591 10.3044 14.8242 11.9889 14.8242C13.6735 14.8242 15.0388 13.4591 15.0388 11.7745C15.0388 10.0899 13.6735 8.72413 11.9889 8.72413ZM11.9889 9.79454C13.0823 9.79454 13.9689 10.6809 13.9689 11.7745C13.9689 12.8679 13.0823 13.7544 11.9889 13.7544C10.8954 13.7544 10.009 12.8679 10.009 11.7745C10.009 10.6809 10.8954 9.79454 11.9889 9.79454Z" fill="white"/>
</svg>
