<svg width="23" height="23" viewBox="0 0 23 23" fill="none" xmlns="http://www.w3.org/2000/svg">
<path opacity="0.1" fill-rule="evenodd" clip-rule="evenodd" d="M0.0854492 11.7744C0.0854492 5.62358 5.0717 0.637329 11.2226 0.637329C17.3734 0.637329 22.3597 5.62358 22.3597 11.7744C22.3597 17.9253 17.3734 22.9116 11.2226 22.9116C5.0717 22.9116 0.0854492 17.9253 0.0854492 11.7744Z" fill="white"/>
<path fill-rule="evenodd" clip-rule="evenodd" d="M15.864 7.94577C16.3751 8.08604 16.7777 8.49932 16.9143 9.02416C17.1625 9.97537 17.1625 11.9601 17.1625 11.9601C17.1625 11.9601 17.1625 13.9447 16.9143 14.896C16.7777 15.4208 16.3751 15.8341 15.864 15.9745C14.9376 16.2293 11.2228 16.2293 11.2228 16.2293C11.2228 16.2293 7.50788 16.2293 6.58148 15.9745C6.07032 15.8341 5.66776 15.4208 5.53115 14.896C5.28296 13.9447 5.28296 11.9601 5.28296 11.9601C5.28296 11.9601 5.28296 9.97537 5.53115 9.02416C5.66776 8.49932 6.07032 8.08604 6.58148 7.94577C7.50788 7.69086 11.2228 7.69086 11.2228 7.69086C11.2228 7.69086 14.9376 7.69086 15.864 7.94577ZM10.1091 10.2895V14.0018L13.0789 12.1457L10.1091 10.2895Z" fill="white"/>
</svg>
